<?xml version="1.0" standalone="no"?>
<!DOCTYPE svg PUBLIC "-//W3C//DTD SVG 20010904//EN"
 "http://www.w3.org/TR/2001/REC-SVG-20010904/DTD/svg10.dtd">
<svg version="1.0" xmlns="http://www.w3.org/2000/svg"
 width="400.000000pt" height="400.000000pt" viewBox="0 0 400.000000 400.000000"
 preserveAspectRatio="xMidYMid meet">

<g transform="translate(0.000000,400.000000) scale(0.100000,-0.100000)"
fill="#000000" stroke="none">
<path d="M0 3943 c0 -53 1 -56 15 -37 14 17 14 16 0 -13 -13 -29 -15 -240 -15
-1963 l0 -1930 1511 2 1511 3 20 50 c37 93 59 178 47 186 -15 9 -18 228 -4
232 6 2 10 45 11 98 1 106 8 136 36 162 13 13 17 26 13 40 -7 22 -91 204 -122
262 -48 91 -118 237 -135 284 -25 67 -147 305 -193 376 -60 95 -159 178 -256
214 -30 12 -54 21 -55 21 -1 0 -4 -28 -8 -62 -8 -84 -39 -203 -51 -202 -5 0
-33 45 -61 99 -29 55 -56 101 -62 103 -12 4 -14 -6 -42 -186 l-21 -134 37 -65
c20 -37 57 -86 81 -111 35 -34 45 -52 46 -78 1 -18 -2 -36 -5 -39 -17 -18 -70
40 -148 164 -47 75 -50 136 -15 359 15 96 24 176 22 179 -6 6 -140 -17 -155
-26 -6 -3 -18 -72 -28 -154 -13 -116 -20 -147 -32 -147 -15 0 -15 48 4 229 7
58 6 63 -12 59 -10 -1 -21 -14 -24 -28 -8 -33 -44 -37 -116 -14 -44 14 -77 16
-172 11 -64 -3 -133 -10 -152 -16 -92 -25 -163 -41 -167 -37 -5 5 168 62 218
71 19 4 111 8 205 9 93 2 181 8 195 14 26 10 37 13 139 32 183 35 348 2 492
-97 70 -49 145 -139 190 -227 22 -44 52 -98 66 -120 30 -47 73 -130 76 -148 2
-7 6 -22 10 -33 5 -11 13 -33 19 -50 6 -16 25 -52 43 -80 18 -27 40 -70 50
-95 10 -25 28 -60 41 -79 12 -18 25 -48 29 -67 3 -19 11 -34 17 -34 6 0 7 -3
4 -7 -4 -3 2 -20 12 -37 11 -17 28 -57 39 -88 20 -57 20 -57 0 -94 -16 -30
-17 -38 -6 -45 10 -7 9 -9 -3 -9 -22 0 -13 -46 12 -64 16 -11 17 -19 9 -67
-23 -133 -41 -225 -46 -241 -3 -10 -5 -37 -6 -60 0 -24 -4 -47 -8 -53 -5 -5
-9 -14 -10 -20 -3 -27 -14 -62 -26 -80 -6 -11 -15 -30 -19 -43 l-6 -22 480 0
481 1 0 1338 0 1337 -68 0 c-104 -1 -112 10 -87 131 8 35 106 135 113 114 2
-6 12 -11 23 -11 18 0 19 9 18 183 -1 111 -4 165 -9 138 -7 -48 -30 -71 -69
-71 -14 0 -43 -5 -64 -11 -44 -12 -81 -61 -72 -96 8 -35 -12 -28 -64 21 -155
146 -188 173 -210 174 -33 1 -62 37 -69 84 -4 33 -12 44 -39 60 -38 23 -53 46
-53 81 0 14 -6 29 -13 35 -14 12 -156 12 -163 0 -8 -12 -84 -10 -84 3 0 6 9 8
20 4 11 -3 20 -2 20 3 0 5 -26 20 -57 33 -32 12 -74 32 -93 42 -150 85 -183
98 -229 93 -63 -7 -93 2 -86 24 3 11 0 20 -10 24 -8 3 -15 1 -15 -4 0 -5 -9
-12 -20 -15 -22 -7 -36 4 -62 50 -12 22 -26 31 -52 35 -29 4 -34 8 -26 20 6 9
10 10 10 3 0 -6 12 -11 28 -11 41 1 91 -12 128 -34 18 -11 38 -17 44 -13 5 3
10 1 10 -4 0 -6 3 -10 8 -10 21 4 32 -2 26 -13 -5 -8 -2 -9 9 -5 10 3 17 3 17
-1 0 -4 11 -12 25 -19 19 -8 25 -8 25 0 0 7 7 4 15 -7 8 -10 33 -29 57 -42 24
-13 53 -28 65 -35 19 -10 29 -7 70 19 67 42 182 72 279 72 77 0 209 -20 234
-35 22 -13 -10 -24 -44 -14 -39 11 -46 11 -46 0 0 -5 15 -14 33 -22 17 -7 51
-25 73 -40 23 -16 45 -25 49 -21 3 4 5 0 3 -8 -2 -8 3 -14 10 -12 8 1 11 -2 8
-7 -10 -15 71 -81 91 -74 16 6 16 5 5 -10 -8 -9 -19 -15 -25 -14 -6 1 -12 -5
-14 -13 -3 -12 5 -14 40 -12 41 4 47 0 111 -58 64 -58 71 -62 105 -56 20 3 44
6 54 6 25 0 25 106 0 113 -17 4 -17 5 0 6 16 1 17 21 17 276 l0 275 -1142 -1
c-629 0 -1134 -5 -1123 -9 19 -8 19 -9 -2 -9 -13 -1 -23 4 -23 9 0 6 -86 10
-239 10 l-240 0 -4 -47 -3 -48 -2 48 -2 47 -69 0 c-46 0 -71 -4 -74 -12 -4
-10 -6 -10 -6 0 -1 8 -24 12 -80 12 -67 0 -80 -3 -84 -17 -4 -17 -5 -17 -6 0
-1 20 -21 22 -40 5 -11 -11 -12 -10 -6 1 5 9 3 12 -6 9 -8 -3 -14 -16 -14 -31
0 -14 -3 -29 -7 -33 -5 -4 -8 6 -8 23 0 17 -6 33 -14 36 -7 3 -77 6 -155 6
l-141 0 0 -114 c0 -113 0 -115 -22 -115 -17 0 -19 3 -10 9 10 6 15 41 19 114
l5 105 -171 1 -171 2 0 -87 c0 -48 -3 -84 -6 -81 -4 4 -6 42 -5 86 l2 79 -75
1 -76 1 0 -57z m1613 35 c15 -7 27 -16 27 -20 0 -5 9 -8 20 -8 11 0 20 -4 20
-10 0 -16 -30 -11 -57 9 -14 11 -32 17 -41 14 -24 -9 -81 -66 -76 -75 12 -19
-12 -5 -27 15 -16 21 -15 22 15 22 24 0 31 4 31 20 0 19 28 44 51 45 5 0 22
-6 37 -12z m177 8 c0 -3 -4 -8 -10 -11 -5 -3 -10 -1 -10 4 0 6 5 11 10 11 6 0
10 -2 10 -4z m323 -3 c-7 -2 -19 -2 -25 0 -7 3 -2 5 12 5 14 0 19 -2 13 -5z
m-1541 -108 c-2 -58 -6 -105 -10 -105 -4 0 -6 47 -4 105 2 58 6 105 10 105 4
0 6 -47 4 -105z m1645 99 c-3 -3 -12 -4 -19 -1 -8 3 -5 6 6 6 11 1 17 -2 13
-5z m-2167 -24 c-6 -11 -13 -20 -16 -20 -2 0 0 9 6 20 6 11 13 20 16 20 2 0 0
-9 -6 -20z m387 -92 c-2 -24 -4 -7 -4 37 0 44 2 63 4 43 2 -21 2 -57 0 -80z
m1513 102 c18 -12 2 -12 -25 0 -13 6 -15 9 -5 9 8 0 22 -4 30 -9z m773 3 c-7
-2 -21 -2 -30 0 -10 3 -4 5 12 5 17 0 24 -2 18 -5z m-1816 -25 c-3 -8 -6 -5
-6 6 -1 11 2 17 5 13 3 -3 4 -12 1 -19z m1136 15 c-7 -2 -21 -2 -30 0 -10 3
-4 5 12 5 17 0 24 -2 18 -5z m765 0 c-10 -2 -28 -2 -40 0 -13 2 -5 4 17 4 22
1 32 -1 23 -4z m-1661 -50 c-3 -10 -5 -2 -5 17 0 19 2 27 5 18 2 -10 2 -26 0
-35z m573 31 c0 -2 -7 -4 -15 -4 -8 0 -15 4 -15 10 0 5 7 7 15 4 8 -4 15 -8
15 -10z m1173 9 c-7 -2 -21 -2 -30 0 -10 3 -4 5 12 5 17 0 24 -2 18 -5z
m-1485 -12 c22 -13 21 -71 0 -82 -21 -11 -23 -6 -6 21 10 15 10 22 1 31 -9 9
-18 5 -38 -17 -96 -106 -116 -131 -121 -151 -4 -13 -9 -23 -13 -23 -11 0 -51
-75 -51 -94 0 -9 -4 -16 -10 -16 -5 0 -10 -8 -10 -17 0 -10 -23 -53 -50 -96
-48 -74 -55 -105 -24 -93 26 10 14 -7 -47 -65 -64 -63 -75 -69 -65 -41 3 9 -7
2 -24 -17 -16 -19 -32 -32 -35 -29 -7 7 143 208 155 208 5 0 7 6 5 13 -3 6 11
34 30 61 19 27 35 60 35 73 0 13 3 23 8 23 4 0 15 14 24 30 l17 30 -32 1 -32
1 32 8 c49 11 66 35 66 88 -1 37 1 41 6 17 l6 -29 34 44 c39 51 113 130 121
130 3 0 11 -4 18 -9z m589 -1 c83 0 155 0 160 1 18 3 33 -1 33 -10 0 -4 -37
-9 -82 -10 -46 0 -101 -2 -123 -3 -22 -1 -56 1 -75 4 -42 6 -66 -8 -49 -29 7
-7 9 -17 5 -20 -4 -4 -11 -2 -15 5 -10 16 -41 4 -35 -13 3 -8 12 -11 19 -9 14
6 30 -12 18 -19 -16 -9 -53 13 -53 32 0 11 -6 22 -12 24 -7 3 2 6 21 6 29 1
32 3 21 16 -7 8 -18 15 -26 15 -7 0 -16 4 -19 10 -4 6 7 8 27 5 18 -3 101 -5
185 -5z m258 0 c18 -8 18 -9 -5 -10 l-25 -2 28 -11 c15 -6 26 -16 24 -21 -5
-14 42 -46 66 -46 40 0 28 -46 -15 -63 -13 -4 -18 -17 -18 -42 0 -32 -2 -35
-30 -35 -16 0 -30 5 -30 11 0 6 -7 9 -15 5 -16 -6 -65 12 -77 29 -5 6 -8 4 -8
-4 0 -10 -3 -12 -10 -5 -18 18 0 44 25 40 17 -3 35 7 64 33 46 42 46 57 1 83
-52 30 -31 62 25 38z m422 -6 c-3 -3 -12 -4 -19 -1 -8 3 -5 6 6 6 11 1 17 -2
13 -5z m360 0 c-3 -3 -12 -4 -19 -1 -8 3 -5 6 6 6 11 1 17 -2 13 -5z m-2210
-26 c-3 -8 -6 -5 -6 6 -1 11 2 17 5 13 3 -3 4 -12 1 -19z m883 -16 c0 -1 -9 2
-20 8 -11 6 -20 15 -20 20 0 6 9 2 20 -7 11 -10 20 -19 20 -21z m-483 -34 c-2
-13 -4 -5 -4 17 -1 22 1 32 4 23 2 -10 2 -28 0 -40z m1700 46 c-3 -3 -12 -4
-19 -1 -8 3 -5 6 6 6 11 1 17 -2 13 -5z m-320 -10 c-3 -3 -12 -4 -19 -1 -8 3
-5 6 6 6 11 1 17 -2 13 -5z m40 0 c-3 -3 -12 -4 -19 -1 -8 3 -5 6 6 6 11 1 17
-2 13 -5z m390 0 c-3 -3 -12 -4 -19 -1 -8 3 -5 6 6 6 11 1 17 -2 13 -5z m-340
-10 c-3 -3 -12 -4 -19 -1 -8 3 -5 6 6 6 11 1 17 -2 13 -5z m50 0 c-3 -3 -12
-4 -19 -1 -8 3 -5 6 6 6 11 1 17 -2 13 -5z m-1248 -74 c-5 -35 -15 -71 -20
-79 -8 -13 -9 -12 -5 4 3 11 8 38 11 60 10 63 16 88 20 83 3 -2 0 -33 -6 -68z
m291 60 c0 -13 -20 -13 -40 0 -12 8 -9 10 13 10 15 0 27 -4 27 -10z m1094 2
c3 -5 -8 -6 -25 -4 -16 2 -29 6 -29 8 0 8 49 4 54 -4z m66 -12 c0 -5 -2 -10
-4 -10 -3 0 -8 5 -11 10 -3 6 -1 10 4 10 6 0 11 -4 11 -10z m337 4 c-3 -3 -12
-4 -19 -1 -8 3 -5 6 6 6 11 1 17 -2 13 -5z m-2384 -56 c-5 -33 -2 -44 12 -55
18 -12 18 -13 -4 -13 -21 0 -22 4 -20 60 1 32 6 57 10 55 4 -3 5 -24 2 -47z
m2114 46 c-3 -3 -12 -4 -19 -1 -8 3 -5 6 6 6 11 1 17 -2 13 -5z m93 -10 c0 -2
-16 -4 -36 -4 -19 0 -33 4 -30 8 5 8 66 4 66 -4z m-466 -6 c-3 -4 -9 -8 -15
-8 -5 0 -9 4 -9 8 0 5 7 9 15 9 8 0 12 -4 9 -9z m174 -29 c-3 -20 -5 -19 -9 9
-3 20 -2 29 4 23 5 -5 7 -19 5 -32z m649 35 c-3 -3 -12 -4 -19 -1 -8 3 -5 6 6
6 11 1 17 -2 13 -5z m-2080 -36 c-3 -7 -5 -2 -5 12 0 14 2 19 5 13 2 -7 2 -19
0 -25z m1356 25 c-7 -2 -21 -2 -30 0 -10 3 -4 5 12 5 17 0 24 -2 18 -5z m530
-10 c-7 -2 -19 -2 -25 0 -7 3 -2 5 12 5 14 0 19 -2 13 -5z m-860 -10 c-7 -2
-19 -2 -25 0 -7 3 -2 5 12 5 14 0 19 -2 13 -5z m44 1 c-3 -3 -12 -4 -19 -1 -8
3 -5 6 6 6 11 1 17 -2 13 -5z m451 -1 c-10 -2 -26 -2 -35 0 -10 3 -2 5 17 5
19 0 27 -2 18 -5z m-1495 -43 c6 -23 3 -25 -40 -35 -53 -11 -40 -30 22 -32 42
-1 55 2 55 13 0 12 3 12 13 2 15 -13 11 -44 -6 -55 -6 -4 -8 0 -4 10 6 15 -2
17 -63 17 -55 0 -71 -4 -79 -17 -9 -16 -10 -16 -11 -2 0 19 37 69 51 69 14 0
39 26 39 39 0 19 17 12 23 -9z m2177 5 c0 -8 -7 -15 -16 -15 -14 0 -14 3 -4
15 7 8 14 15 16 15 2 0 4 -7 4 -15z m-150 1 c0 -2 -9 -6 -20 -9 -11 -3 -18 -1
-14 4 5 9 34 13 34 5z m232 -23 c2 -5 1 -26 -3 -48 l-6 -40 -2 42 c0 23 -7 44
-13 46 -8 3 -7 6 4 6 9 1 18 -2 20 -6z m-1756 -30 c18 -24 17 -30 -3 -30 -26
0 -42 19 -29 34 15 16 17 16 32 -4z m1941 11 c-3 -3 -12 -4 -19 -1 -8 3 -5 6
6 6 11 1 17 -2 13 -5z m-3210 -10 c-3 -3 -12 -4 -19 -1 -8 3 -5 6 6 6 11 1 17
-2 13 -5z m1338 -34 c13 10 15 9 15 -6 0 -11 -4 -26 -10 -34 -7 -12 -12 -10
-29 9 -12 13 -21 31 -21 40 1 13 3 13 15 -3 12 -16 17 -17 30 -6z m-1383 3
c-73 -2 -190 -2 -260 0 -70 1 -10 3 133 3 143 0 200 -2 127 -3z m188 -33 c6
-11 8 -20 6 -20 -3 0 -10 9 -16 20 -6 11 -8 20 -6 20 3 0 10 -9 16 -20z m1692
-20 c15 0 28 -4 28 -9 0 -5 9 -12 19 -16 26 -8 34 -45 13 -61 -15 -12 -11 -13
28 -14 95 -1 169 -59 171 -134 0 -24 3 -34 7 -25 12 28 62 17 92 -20 28 -32
28 -33 59 -16 43 22 47 37 21 87 -46 89 -45 83 -16 72 9 -3 16 -12 16 -20 0
-15 16 -19 22 -5 2 4 21 11 43 15 33 5 37 4 20 -5 -19 -12 -19 -12 0 -20 19
-7 18 -8 -2 -8 -13 -1 -23 -5 -23 -10 0 -4 12 -6 26 -3 21 4 25 1 22 -14 -2
-12 -11 -18 -22 -16 -16 3 -64 -34 -55 -42 2 -2 23 -13 46 -24 70 -36 108
-103 63 -115 -12 -3 -20 -14 -20 -26 0 -27 -14 -27 -39 0 -33 36 -112 67 -146
58 -16 -5 -34 -4 -38 0 -5 5 -16 7 -23 4 -8 -3 -14 0 -14 6 0 6 -8 11 -18 11
-11 0 -24 11 -30 24 -10 24 -14 24 -85 21 -65 -4 -79 -2 -108 18 -41 27 -59
60 -59 107 0 34 -11 62 -24 61 -18 -2 -66 13 -66 20 0 5 -7 9 -15 9 -9 0 -12
6 -9 15 4 8 1 15 -6 15 -8 0 -10 8 -5 28 4 15 7 34 7 43 -1 15 4 15 45 3 26
-8 59 -14 75 -14z m-1162 0 c0 -5 -2 -10 -4 -10 -3 0 -8 5 -11 10 -3 6 -1 10
4 10 6 0 11 -4 11 -10z m2487 -22 c-3 -7 -5 -2 -5 12 0 14 2 19 5 13 2 -7 2
-19 0 -25z m-3073 -4 c13 -13 16 -43 16 -174 0 -95 -4 -161 -10 -165 -5 -3
-10 -1 -10 5 0 6 -10 15 -22 20 l-23 9 22 0 c22 1 40 32 28 51 -3 5 -21 11
-38 11 l-32 2 30 4 c16 3 33 10 37 16 11 17 9 189 -2 207 -8 12 -52 16 -257
20 l-248 6 247 2 c213 2 249 0 262 -14z m76 -205 c0 -117 -2 -215 -5 -217 -3
-3 -5 95 -5 218 0 123 3 221 6 218 3 -3 5 -102 4 -219z m607 215 c-9 -10 -87
-12 -87 -3 0 5 21 9 47 9 25 0 44 -3 40 -6z m622 -65 c8 -25 7 -29 -7 -29 -14
0 -15 -2 -2 -10 8 -5 11 -12 7 -16 -3 -4 -13 -2 -21 5 -18 15 -27 51 -13 51 8
0 7 4 -2 9 -17 11 -5 32 14 25 7 -3 18 -19 24 -35z m1888 -26 c-2 -16 -4 -5
-4 22 0 28 2 40 4 28 2 -13 2 -35 0 -50z m-2337 12 c0 -7 9 -16 19 -20 10 -3
21 -14 24 -25 3 -11 13 -23 24 -27 10 -4 27 -15 37 -25 11 -10 26 -18 33 -18
7 0 13 -6 13 -14 0 -8 5 -16 11 -18 17 -6 -7 -48 -26 -48 -8 0 -25 10 -36 21
-16 16 -23 18 -29 9 -15 -24 -44 18 -45 66 0 28 -8 54 -23 73 -23 31 -30 57
-12 46 6 -3 10 -12 10 -20z m2075 -15 c10 -11 16 -20 13 -20 -3 0 -13 9 -23
20 -10 11 -16 20 -13 20 3 0 13 -9 23 -20z m175 -100 c0 -5 -7 -7 -15 -4 -8 4
-15 8 -15 10 0 2 7 4 15 4 8 0 15 -4 15 -10z m-3207 -67 c-13 -2 -33 -2 -45 0
-13 2 -3 4 22 4 25 0 35 -2 23 -4z m-236 -9 c-3 -3 -12 -4 -19 -1 -8 3 -5 6 6
6 11 1 17 -2 13 -5z m111 -1 c-15 -2 -42 -2 -60 0 -18 2 -6 4 27 4 33 0 48 -2
33 -4z m-201 -10 c-20 -2 -52 -2 -70 0 -17 2 0 4 38 4 39 0 53 -2 32 -4z m351
-50 c-16 -2 -40 -2 -55 0 -16 2 -3 4 27 4 30 0 43 -2 28 -4z m-121 -10 c-20
-2 -52 -2 -70 0 -17 2 0 4 38 4 39 0 53 -2 32 -4z m1071 -18 c16 -34 15 -34
-8 -28 -29 8 -24 -13 10 -44 49 -43 34 -87 -35 -103 -37 -8 -42 -7 -68 22 -16
17 -32 41 -37 53 -11 30 -4 96 12 106 20 13 28 11 22 -6 -4 -9 0 -15 10 -15 9
0 16 6 16 14 0 13 16 20 56 25 6 0 16 -10 22 -24z m-1230 8 c-32 -2 -86 -2
-120 0 -35 2 -9 3 57 3 66 0 94 -1 63 -3z m1266 -19 c9 -24 2 -26 -12 -4 -7
11 -8 20 -3 20 5 0 12 -7 15 -16z m-914 -156 c-7 -38 -14 -67 -17 -65 -2 3 0
31 6 63 6 32 12 83 13 113 l2 56 3 -49 c3 -27 -1 -80 -7 -118z m540 146 c5 -5
0 -9 -14 -9 -12 0 -23 5 -23 11 0 13 23 12 37 -2z m2108 -34 c50 -12 81 -39
54 -48 -7 -2 -12 -10 -12 -18 0 -8 -4 -14 -10 -14 -5 0 -10 -7 -10 -16 0 -8
-16 -22 -35 -30 -34 -14 -44 -28 -26 -38 4 -3 11 -19 14 -36 4 -16 12 -30 18
-30 8 0 8 4 -1 15 -6 8 -10 20 -8 26 2 6 12 0 21 -15 11 -16 13 -26 6 -26 -6
0 -9 -7 -5 -15 3 -8 1 -15 -4 -15 -6 0 -10 5 -10 10 0 20 -28 10 -34 -12 -4
-17 -8 -20 -15 -10 -6 10 -10 8 -14 -8 -5 -18 -9 -20 -26 -11 -20 11 -20 12
-3 30 9 10 20 16 24 14 3 -2 13 0 22 3 16 6 21 30 10 58 -10 27 -24 7 -17 -26
5 -27 4 -30 -11 -25 -10 4 -22 7 -27 7 -5 0 -9 5 -9 11 0 6 7 9 15 6 8 -4 17
-2 20 3 4 6 -3 10 -15 10 -13 0 -20 5 -17 13 2 6 11 11 18 9 11 -3 11 -1 2 9
-6 6 -9 19 -6 28 3 11 -2 9 -15 -6 -19 -22 -20 -22 -25 -3 -3 11 -1 18 3 15
12 -8 20 25 22 89 2 57 19 85 43 67 5 -5 34 -14 63 -21z m-578 -1 c0 -6 -4 -7
-10 -4 -5 3 -10 11 -10 16 0 6 5 7 10 4 6 -3 10 -11 10 -16z m-2000 -69 c-5
-22 -8 -27 -9 -13 -1 21 9 56 14 51 2 -2 0 -19 -5 -38z m2195 0 c3 -5 1 -10
-4 -10 -6 0 -11 5 -11 10 0 6 2 10 4 10 3 0 8 -4 11 -10z m-2157 -34 c-7 -7
-24 -32 -38 -54 -24 -40 -40 -53 -40 -33 0 6 5 13 10 16 6 3 11 21 11 38 1 18
3 24 6 14 4 -17 6 -16 24 4 10 12 19 26 19 31 0 5 5 6 10 3 7 -4 6 -11 -2 -19z
m2222 -3 c26 -26 49 -73 36 -73 -4 0 -15 15 -26 33 -19 31 -20 31 -21 7 -1
-20 -2 -21 -6 -6 -3 11 -11 26 -19 34 -8 7 -14 18 -14 23 0 17 21 9 50 -18z
m189 -90 c9 -6 13 -15 8 -19 -4 -4 0 -16 10 -26 14 -16 14 -18 0 -18 -9 0 -20
15 -27 34 -6 19 -16 36 -22 38 -7 3 -8 10 -3 18 7 12 9 12 13 0 3 -8 12 -20
21 -27z m612 7 c13 -10 18 -19 12 -20 -7 0 -13 5 -13 10 0 6 -9 10 -20 10 -11
0 -20 5 -20 10 0 16 16 12 41 -10z m-3160 -43 l-11 -27 -272 2 -273 2 261 6
c271 5 293 9 295 49 0 9 3 11 5 5 3 -6 0 -23 -5 -37z m39 4 c-6 -12 -15 -21
-21 -21 -5 0 -2 11 8 24 21 28 29 27 13 -3z m3177 -16 c8 -22 -6 -33 -17 -15
-13 20 -12 30 0 30 6 0 13 -7 17 -15z m-1896 -29 c5 3 9 -2 9 -12 0 -13 -3
-14 -15 -4 -8 7 -15 18 -14 24 0 7 2 6 6 -2 2 -6 9 -10 14 -6z m-1317 -21 c-4
-8 -11 -15 -16 -15 -6 0 -5 6 2 15 7 8 14 15 16 15 2 0 1 -7 -2 -15z m1366
-19 c0 -3 -7 -6 -15 -6 -9 0 -15 9 -15 21 0 18 2 19 15 5 8 -8 15 -17 15 -20z
m-1945 6 c8 -23 0 -24 -18 -4 -14 15 -15 19 -2 19 8 0 17 -7 20 -15z m575 -27
c0 -17 -11 -20 -26 -5 -6 6 -117 11 -269 13 l-260 2 278 3 c241 2 277 0 277
-13z m2848 -61 c18 -21 23 -37 21 -71 -2 -30 2 -47 11 -53 12 -8 11 -10 -4
-10 -11 0 -35 -18 -55 -39 -37 -40 -37 -40 -69 -24 -18 8 -32 22 -32 30 0 8
-4 12 -9 9 -5 -3 -11 4 -14 15 -4 16 -11 20 -27 16 -19 -5 -21 -2 -15 26 4 18
13 42 21 54 8 12 14 28 14 35 0 8 12 21 28 31 39 25 100 16 130 -19z m-2875
-9 c-3 -9 -8 -14 -10 -11 -3 3 -2 9 2 15 9 16 15 13 8 -4z m-6 -77 c-3 -8 -6
-5 -6 6 -1 11 2 17 5 13 3 -3 4 -12 1 -19z m-28 -93 c-13 -77 -19 -82 -19 -14
0 30 5 60 12 67 6 6 13 11 14 9 1 -1 -2 -29 -7 -62z m2988 49 c-3 -3 -12 -4
-19 -1 -8 3 -5 6 6 6 11 1 17 -2 13 -5z m-2747 -94 c0 -5 -7 -10 -16 -10 -9 0
-12 -5 -8 -12 5 -7 3 -8 -5 -4 -8 5 -14 0 -18 -13 -3 -12 -12 -21 -20 -21 -16
0 -14 5 26 53 15 18 41 23 41 7z m85 -61 c8 -23 -7 -45 -24 -35 -6 4 -11 18
-11 32 0 30 26 32 35 3z m-134 -46 l1 -38 9 33 c5 17 12 32 15 32 4 0 3 -7 0
-16 -4 -12 -2 -15 9 -11 23 9 30 -14 9 -30 -10 -8 -19 -20 -19 -28 0 -8 -4
-16 -9 -17 -12 -4 -48 61 -41 72 3 5 1 11 -5 15 -13 8 -3 25 16 25 9 0 14 -12
15 -37z m2216 12 c0 -8 -4 -12 -9 -9 -5 3 -6 10 -3 15 9 13 12 11 12 -6z
m-2127 -5 c0 -5 -4 -10 -10 -10 -5 0 -10 5 -10 10 0 6 5 10 10 10 6 0 10 -4
10 -10z m-373 -32 c-3 -7 -5 -2 -5 12 0 14 2 19 5 13 2 -7 2 -19 0 -25z m2773
12 c0 -5 -7 -7 -15 -4 -8 4 -12 10 -9 15 6 11 24 2 24 -11z m-47 -7 c-4 -11
-3 -14 5 -9 7 4 12 3 12 -3 0 -16 -19 -23 -36 -13 -14 8 -14 10 1 25 21 21 26
21 18 0z m-1384 -46 c12 -18 10 -19 -38 -16 -37 3 -51 0 -51 -9 0 -7 5 -10 10
-7 6 3 10 0 10 -9 0 -8 -6 -17 -12 -20 -10 -5 -10 -7 0 -12 7 -3 19 -12 26
-20 8 -8 23 -14 34 -14 13 0 21 -8 24 -24 7 -33 -1 -42 -39 -50 -27 -6 -34 -4
-50 20 -33 50 -41 90 -31 140 7 31 16 48 31 53 26 10 71 -6 86 -32z m-1550 17
c24 -34 48 -44 80 -33 18 6 34 9 37 6 10 -9 -54 -37 -70 -31 -10 4 -19 -2 -27
-18 -16 -36 -111 -79 -125 -57 -3 5 -15 14 -27 20 -22 12 -22 11 -4 -9 30 -33
3 -34 -31 0 l-32 30 -35 -26 c-19 -15 -44 -45 -55 -66 -52 -101 2 -388 92
-493 13 -14 39 -38 58 -53 l35 -26 -33 6 c-34 6 -62 26 -62 45 0 6 -4 11 -9
11 -14 0 -61 90 -75 143 -7 26 -16 44 -20 40 -5 -5 -5 2 -1 15 3 13 2 29 -4
35 -16 20 -16 267 1 298 12 23 79 89 91 89 2 0 22 16 43 36 22 20 48 40 59 45
23 10 105 5 114 -7z m2991 6 c0 -5 -4 -10 -10 -10 -5 0 -10 5 -10 10 0 6 5 10
10 10 6 0 10 -4 10 -10z m-2818 -32 c-9 -9 -15 -9 -24 0 -9 9 -7 12 12 12 19
0 21 -3 12 -12z m2798 -2 c0 -24 -17 -28 -23 -6 -3 13 0 20 9 20 8 0 14 -6 14
-14z m58 -34 c3 -48 -2 -51 -29 -19 -29 35 -23 71 10 65 11 -2 17 -17 19 -46z
m-101 4 c-6 -8 -15 -12 -19 -9 -4 2 -2 10 5 17 6 8 15 12 19 9 4 -2 2 -10 -5
-17z m-1340 -84 c-16 -15 -17 -15 -17 6 0 12 6 22 13 23 9 0 9 2 -1 6 -6 2 -9
10 -5 16 4 7 10 2 16 -12 8 -17 7 -26 -6 -39z m-1357 -278 c0 -8 -19 -13 -24
-6 -3 5 1 9 9 9 8 0 15 -2 15 -3z m-290 -67 c0 -8 -3 -8 -12 1 -23 23 -28 12
-10 -24 16 -35 17 -35 23 -13 l7 24 1 -25 c0 -14 -5 -32 -12 -41 -13 -16 -61
-34 -51 -18 3 5 1 9 -5 9 -6 0 -9 14 -7 33 2 17 -1 35 -6 38 -7 5 -6 17 3 37
l13 30 28 -19 c15 -11 28 -25 28 -32z m1010 -105 c0 -4 -44 -19 -97 -31 -92
-22 -101 -27 -141 -70 -23 -25 -66 -81 -95 -123 -29 -43 -55 -78 -59 -78 -3 0
-9 13 -13 29 -7 33 9 70 62 144 l35 47 -29 -1 c-43 -2 -68 -12 -68 -29 0 -8
-6 -14 -13 -12 -6 1 -12 -3 -12 -9 0 -6 -9 -8 -21 -4 -14 5 -19 4 -15 -4 5 -7
1 -9 -8 -5 -9 3 -16 1 -16 -5 0 -6 -7 -8 -16 -4 -19 7 -45 -21 -39 -40 8 -22
65 -342 65 -362 0 -23 -16 -52 -24 -44 -4 3 -22 84 -41 180 -19 96 -37 179
-39 184 -2 6 -10 -5 -18 -23 -13 -30 -11 -47 24 -215 21 -100 38 -193 38 -207
0 -26 -15 -58 -23 -50 -3 3 -19 70 -36 150 -50 231 -64 289 -71 299 -8 15 -52
1 -46 -14 15 -41 28 -234 23 -345 -9 -179 -49 -389 -76 -398 -17 -6 -12 45 19
188 30 138 33 325 7 463 -15 76 -23 100 -39 108 -27 14 -26 15 -79 -147 -24
-74 -48 -133 -54 -131 -21 7 -15 51 21 160 21 62 39 120 41 129 4 22 -25 30
-100 28 -86 -3 -84 -4 -79 30 3 18 0 30 -7 30 -6 0 -11 5 -11 10 0 16 18 12
48 -10 30 -22 234 -90 270 -90 39 0 85 26 139 78 61 59 204 132 259 132 20 0
66 7 103 15 130 30 226 53 229 54 1 1 2 -3 2 -7z m1198 -116 c9 -31 -27 -195
-162 -732 -9 -33 -22 -30 -30 7 -4 19 4 73 19 138 64 270 121 519 141 609 6
30 21 20 32 -22z m1279 -201 c-4 -8 -2 -17 3 -20 16 -10 -1 -33 -21 -28 -10 3
-16 9 -13 14 3 5 10 7 15 4 5 -4 9 -1 9 4 0 6 -8 12 -17 12 -17 1 -17 2 0 6 9
2 17 9 17 14 0 5 3 9 6 9 3 0 4 -7 1 -15z m-350 -677 c-3 -8 -6 -5 -6 6 -1 11
2 17 5 13 3 -3 4 -12 1 -19z m-250 -230 c-3 -8 -6 -5 -6 6 -1 11 2 17 5 13 3
-3 4 -12 1 -19z m28 -310 c-10 -13 -14 -16 -11 -8 3 8 9 24 13 35 4 11 8 14
11 7 2 -6 -4 -22 -13 -34z"/>
<path d="M1031 3366 c-19 -23 4 -28 24 -6 15 17 16 20 3 20 -9 0 -21 -6 -27
-14z"/>
<path d="M3015 3290 c-3 -5 -2 -10 4 -10 5 0 13 5 16 10 3 6 2 10 -4 10 -5 0
-13 -4 -16 -10z"/>
<path d="M1680 3400 c0 -5 5 -10 10 -10 6 0 10 5 10 10 0 6 -4 10 -10 10 -5 0
-10 -4 -10 -10z"/>
<path d="M210 2334 c0 -8 32 -33 43 -34 4 0 -2 9 -13 20 -21 21 -30 25 -30 14z"/>
<path d="M3235 3685 c21 -7 195 -12 195 -5 0 4 -46 8 -102 8 -57 1 -98 -1 -93
-3z"/>
<path d="M3133 3661 c-60 -22 -113 -52 -113 -64 0 -4 20 4 45 19 25 14 71 34
103 44 31 10 48 18 37 19 -11 0 -43 -8 -72 -18z"/>
<path d="M3380 3595 c0 -7 -2 -22 -5 -32 -3 -10 1 -4 9 12 15 30 15 30 16 5 1
-23 2 -23 10 -5 12 29 12 31 -10 32 -11 1 -20 -4 -20 -12z"/>
<path d="M3188 3575 c2 -14 6 -25 8 -25 2 0 4 11 4 25 0 14 -4 25 -9 25 -4 0
-6 -11 -3 -25z"/>
<path d="M3211 3584 c0 -11 3 -14 6 -6 3 7 2 16 -1 19 -3 4 -6 -2 -5 -13z"/>
<path d="M3535 3430 c-10 -11 -13 -20 -7 -20 6 0 16 9 22 20 6 11 9 20 7 20
-2 0 -12 -9 -22 -20z"/>
<path d="M2220 1964 c0 -14 84 -174 92 -174 3 0 12 32 18 72 11 66 11 73 -6
85 -10 7 -27 13 -38 13 -12 0 -31 3 -43 6 -13 4 -23 2 -23 -2z"/>
</g>
</svg>
